<?xml version="1.0" encoding="UTF-8"?><svg id="Calque_1" xmlns="http://www.w3.org/2000/svg" viewBox="0 0 24 23"><defs><style>.cls-1{stroke-width:0px;}</style></defs><path class="cls-1" d="m0,0c2.4,0,4.8,0,7.2,0,.26,0,.41.07.56.28,1.05,1.48,2.12,2.95,3.18,4.42.54.75,1.06,1.52,1.59,2.28.08.12.18.23.29.37.71-.86,1.39-1.68,2.07-2.51.05-.06.1-.13.15-.19.93-1.08,1.85-2.17,2.78-3.25.34-.4.66-.81,1-1.21.07-.08.19-.18.29-.19,1.16-.01,2.32,0,3.54,0-.38.49-.72.93-1.08,1.36-.9,1.07-1.81,2.13-2.71,3.2-1.08,1.29-2.15,2.58-3.22,3.87-.35.42-.68.86-1.04,1.31.19.3.38.62.6.92.72,1.01,1.46,2,2.18,3.01.98,1.36,1.97,2.73,2.95,4.09.86,1.2,1.72,2.4,2.58,3.61.36.51.72,1.03,1.1,1.59-.12,0-.2.02-.29.02-2.26,0-4.53,0-6.79,0-.16,0-.38-.08-.47-.2-1.15-1.54-2.28-3.1-3.41-4.65-.75-1.03-1.48-2.08-2.25-3.16-.31.35-.59.65-.85.97-.86,1.03-1.7,2.08-2.56,3.11-1.02,1.23-2.04,2.46-3.06,3.7-.16.2-.33.27-.58.27-1.08-.01-2.17,0-3.31,0,.08-.12.13-.19.19-.26,1.27-1.53,2.54-3.06,3.81-4.59,1.01-1.22,2.01-2.45,3.02-3.67.46-.56.93-1.12,1.37-1.69.06-.08.05-.25.03-.37-.02-.1-.09-.19-.15-.28-.77-1.05-1.55-2.1-2.32-3.16-.95-1.3-1.9-2.61-2.84-3.92-.84-1.17-1.68-2.33-2.52-3.5C.69,1.09.34.63,0,.17c0-.05,0-.11,0-.16Zm19.7,20.71c-.27-.41-.49-.77-.73-1.11-.9-1.26-1.8-2.51-2.7-3.77-.88-1.23-1.77-2.47-2.65-3.7-.89-1.25-1.78-2.49-2.68-3.74-1.24-1.71-2.48-3.42-3.72-5.13-.07-.1-.11-.22-.19-.31-.22-.26-.42-.7-.67-.74-.66-.11-1.34-.04-2.08-.04.74,1.04,1.43,2.01,2.13,2.98.87,1.21,1.75,2.42,2.62,3.62,1,1.38,2.01,2.76,3.02,4.14.74,1.01,1.49,2.01,2.22,3.02,1.1,1.52,2.19,3.05,3.3,4.57.06.08.19.16.29.17.6.02,1.2,0,1.85,0Z"/></svg>